<svg xmlns="http://www.w3.org/2000/svg" viewBox="0 0 87.85 87.85"><defs><style>.cls-1{fill:#fff;}</style></defs><g id="Layer_2" data-name="Layer 2"><g id="Layer_1-2" data-name="Layer 1"><path class="cls-1" d="M43.71,61A28.24,28.24,0,1,1,72.34,33.11,28.28,28.28,0,0,1,43.71,61ZM44.5,5A27.71,27.71,0,1,0,71.81,33.1,27.73,27.73,0,0,0,44.5,5Z"/><path class="cls-1" d="M20.32,35.29,21.7,31.7l3.49.05,1.27,3.63-1.07,0L26.34,41l8.21-5.8,1.88-6.73A1.3,1.3,0,0,0,35.76,27l2.51-9.33,1.23,2.24,1.27-2.56,1.6,2.35,1.46-2.31L45,19.82l1.47-2.41,1.15,2.48,1.29-2,1,2.43,1.23-2.43L53,27.14a1.92,1.92,0,0,0-.53,1.79l1.66,6.77,8.32,5.17.59-5h-.95l1.37-3.59,3.5,0L68.27,36H67.21l1.92,9.28a28,28,0,1,0-50,.11l2.13-10Z"/><path class="cls-1" d="M28.85,68.81c-.54-.3-3.53,0-3.53,0l3.4,2.5S30.25,69.62,28.85,68.81Z"/><path class="cls-1" d="M44.54,0A43.93,43.93,0,1,0,87.85,44.54,43.94,43.94,0,0,0,44.54,0ZM20.29,70.59s-3.28,1.46-5.07-1.4c-3.06-5.62,5.58-8.71,6.11-7.64.65,1.22-5,2.08-3.9,5.18.4,1.49,3.9,1.73,3.83-2h3.16l-.54,3,5.52-1s3.46-.52,2.7,2.63a32.27,32.27,0,0,1-3.21,7.21A31.31,31.31,0,0,1,20.29,70.59Zm6.62-6.71a2,2,0,0,1,4,.06,2,2,0,0,1-2.05,2A2,2,0,0,1,26.91,63.88ZM41,84.86a2,2,0,1,1,2-2A2,2,0,0,1,41,84.86Zm5,.07a2,2,0,1,1,2-2A2,2,0,0,1,46,84.93Zm-15.1-7.5L35.41,63.9l3.17,3.25L37.8,68l-2,6.34c6.14,2.28,13.2.6,13.2.6l-.68-2.67,2.6-2,2.72,8.43C40.33,83,30.85,77.43,30.85,77.43Zm30-2.17c.13,1.44-1.16,5.42-5.34,4v-.39s2.63-1.2,1.57-3.14l-3.2-3.85L56,69.74l2,1.93a19.89,19.89,0,0,0,4.69-3.59L58.44,64l1.48-1.26,8.32,6.9S63.45,74.61,60.85,75.26Zm9.62-6.21-8.85-7.9,3.74-1A2.07,2.07,0,0,0,65.9,62l6,5.4ZM43.69,62.7A30,30,0,1,1,74.1,33.13,30,30,0,0,1,43.69,62.7Z"/><rect class="cls-1" x="43.89" y="23.85" width="1.96" height="1.15" transform="matrix(0.01, -1, 1, 0.01, 19.83, 68.95)"/><path class="cls-1" d="M41.28,39.75s0,0,0,.08a1,1,0,0,1,.09-.24l.06,0a.34.34,0,0,1,.08-.17c.06,0,0,.05,0,.08a.39.39,0,0,1,.09-.17l.08.07c0-.11.14-.11.2-.16s.05.05.05.07.09-.11.2-.11.05,0,.05.07a.22.22,0,0,1,.19-.07c.06,0,.06,0,.06.07l.08-.07c.08.07.25,0,.33,0,.14.27-.25.31-.53.49a2.11,2.11,0,0,0-.53.4,2.89,2.89,0,0,0-.34.49,1.82,1.82,0,0,0-.07,1.06c.06-.11,0-.28.06-.4.09.07,0,.22,0,.33a3.2,3.2,0,0,1,.15-.37c.08.07,0,.21.05.28.06-.16,0-.33.14-.44s0,.11.08.16c0-.12,0-.28.09-.4s.06.05.06.07,0-.28.08-.33.06.12.06.17c.05-.17.06-.38.2-.45s0,.07,0,.12c.06-.12.06-.33.2-.37s0,.11,0,.16c.06-.12.14-.23.2-.37l.08.07c.06-.12.14-.24.28-.21s0,.12,0,.17a3.62,3.62,0,0,0-.87.88,1.85,1.85,0,0,0,.06,1.78c-.06-.12-.14-.34,0-.38s0,.12.08.17a2.25,2.25,0,0,1,.1-.71.18.18,0,0,1,.08.16s0-.07.05-.07.06.12,0,.22a.48.48,0,0,0,0-.57c-.08-.12,0-.21.06-.33a.19.19,0,0,1,.08.17c.06-.17,0-.38.09-.55.08,0,0,.12,0,.17.09-.12,0-.29.09-.38s0,.12.08.17c0-.12-.05-.29.09-.38s.05.12.05.17a.43.43,0,0,1,.25-.4c.06,0,.09,0,.09.05s0,.12-.09.16a.47.47,0,0,1,.19.07,1.24,1.24,0,0,0-.39.4.22.22,0,0,1,.28,0c-.25.07-.47.2-.45.44,0-.07.09-.16.2-.21s.13,0,.13,0c-.19.16-.39.33-.34.56.06-.07.06-.21.2-.21s.08,0,.06.08a.68.68,0,0,0-.21.73c0-.08,0-.22.06-.17s0,.12,0,.21l.06,0c.08.12-.06.21,0,.33a1.32,1.32,0,0,1,.08.33c.06-.12,0-.28.06-.4a1.36,1.36,0,0,1,.08.57c0-.05,0-.07,0-.07s0,.16.08.21a4.56,4.56,0,0,1,.1-.87c-.06,0-.09,0-.08,0s-.06-.24.05-.24,0,.17.08.22a.38.38,0,0,1,.06-.33c.06,0,.06-.17.14,0s0,.07,0,.07.19.12.24,0-.05-.12.06-.16c.06,1.68,0,3.62-.07,5.32a.7.7,0,0,1-.09.24c-.06.38.13.66-.1,1,0,.12.06.24.05.38,0,.38-.28.66-.48,1h.52l.44.44.44-.43h.53a3.35,3.35,0,0,1-.51-.89c-.05-.16.14-.33.09-.49a.6.6,0,0,1-.13-.38c-.06-.07,0-.22.06-.29s-.08-.4-.08-.61a40.43,40.43,0,0,1,.08-5.28c.08.07,0,.24.19.22s0-.22.08-.17.14.22.13.38c.09,0,0-.24.09-.21s.05.17.05.24-.05,0-.08,0a5.06,5.06,0,0,1,.07.88c.08-.05,0-.17.08-.21s.06,0,.06.07a1.18,1.18,0,0,1,.09-.57c.08.12,0,.29,0,.41a1.48,1.48,0,0,0,.09-.33c0-.12-.08-.22,0-.34l.06.05c0-.07-.06-.21.05-.21s.06.07.06.17a1,1,0,0,0-.19-.79.26.26,0,0,1,.09,0,.24.24,0,0,1,.13.21c.06-.23-.13-.4-.32-.57,0,0,.08,0,.14,0s.19.13.19.22c.06-.24-.19-.38-.44-.46a.19.19,0,0,1,.28.06c0-.12-.14-.17-.14-.29s-.24-.12-.27-.24.06,0,.09,0,0,0,0,.07H46c.06,0,0-.17.06-.17s.19.24.19.38c0,0,0-.16,0-.16s.08.24.08.38c.09,0,.06-.17.09-.17s0,.24.07.38c0,0-.05-.12.06-.16a2,2,0,0,1,.08.54c0-.07,0-.11.08-.16a.38.38,0,0,1,.08.24c-.08.21-.2.44-.09.66,0-.07-.05-.17.06-.21s.05,0,.05.07.06-.12.09-.17a2.09,2.09,0,0,1,.07.71c.08,0,0-.21.09-.16s0,.24,0,.38a1.79,1.79,0,0,0,.11-1.85c-.25-.33-.63-.57-.9-.91,0,0,0-.12.06-.12a.41.41,0,0,1,.27.24l.08-.06a2.24,2.24,0,0,1,.19.38c0-.05,0-.17.06-.17s.13.24.19.38c0,0,0-.16.05-.11s.14.28.19.45c0,0,0-.17.06-.17s.08.22.08.33c0,0,0-.07,0-.07s.08.29.08.41c.08,0,.06-.17.08-.17s.08.29.14.45c0-.07-.06-.21.06-.28a2.12,2.12,0,0,1,.13.38c0-.12,0-.24.06-.33.08.12,0,.29,0,.4a1.6,1.6,0,0,0-.37-1.56c-.38-.46-1-.58-1.42-.92.08-.07.25.05.33,0l.08.07c0-.07.06-.12.09-.07s.14,0,.25,0l.13.12s.06-.07.06-.07.19,0,.19.17l.08-.07c.06.05.09.07.08.17s0-.07.06-.07.25.21.24.38c0-.05.06-.07.06-.07s0,.21.08.28a1.24,1.24,0,0,0-.07-.71,1.36,1.36,0,0,0-.58-.38A2.92,2.92,0,0,0,45.71,39c-.06,0,.14-.23.25-.32s.14,0,.19,0-.08-.12,0-.17a.9.9,0,0,1,.28.08c0-.05,0-.07-.06-.08.09-.07.2,0,.28.06s0,0,0-.08,0-.07.08,0,.19,0,.19.17c0-.05,0-.17.06-.17s.19.22.27.29c.06-.57-.82-.72-1.34-.64a1,1,0,0,0-.78.54,6,6,0,0,1-.14-.8s0,.07-.06.12c-.08-.17,0-.38-.13-.55-.08.16-.06.38-.14.54-.06-.05-.06-.07,0-.12a3.26,3.26,0,0,1-.26.8,1,1,0,0,0-.57-.51,1.82,1.82,0,0,0-1.35.15.3.3,0,0,0-.2.4c.08-.07.14-.24.28-.28s0,.12,0,.16.14-.11.2-.16.08,0,.08.05l-.06,0c.09,0,.2-.12.28,0l-.06,0c.09.05.25-.12.33,0a.13.13,0,0,0-.05.12c.19-.16.33.08.38.22s-.06.07-.06.07a2.37,2.37,0,0,0-1.68,0A.85.85,0,0,0,41.19,40C41.25,40,41.2,39.82,41.28,39.75Z"/><path class="cls-1" d="M53.26,50.64c-2.57-1.85-5.36-1-7.81.18l-.74.37L44,50.8c-2.42-1.24-5.19-2.17-7.81-.4a11.13,11.13,0,0,1,7.48,1.1l.22.1-.64.3-.33.15-.15-.2a2.24,2.24,0,0,0-.3-.35.45.45,0,0,0-.71.11c-.11.29.21.4.29.19a.15.15,0,0,1,.21-.08,1,1,0,0,1,.29.3l0,0,.09.12,0,0a3.16,3.16,0,0,1-1,.3.36.36,0,0,1-.36-.44c.06-.55-.78-.71-.89.06s.63,1.24,1.43,1.13a5.51,5.51,0,0,0,1.1-.42l.19-.08,0,0a2.24,2.24,0,0,0,.3.35A.45.45,0,0,0,44.1,53c.11-.29-.21-.39-.29-.19a.15.15,0,0,1-.21.08,1,1,0,0,1-.27-.27l.21-.09L44.7,52l1.15.56.21.1a1.14,1.14,0,0,1-.28.26.15.15,0,0,1-.21-.09c-.07-.2-.4-.1-.3.19a.46.46,0,0,0,.71.13,2.67,2.67,0,0,0,.31-.34l0,0,.19.09a5.16,5.16,0,0,0,1.09.45c.79.13,1.54-.38,1.46-1.09s-.93-.64-.88-.08a.36.36,0,0,1-.38.42,2.74,2.74,0,0,1-1-.33l0,0,.09-.11,0,0a1,1,0,0,1,.3-.29.15.15,0,0,1,.21.09c.08.2.4.11.3-.18a.46.46,0,0,0-.71-.14,2.25,2.25,0,0,0-.31.35,2.44,2.44,0,0,0-.16.19l-.33-.16-.62-.32.22-.09A11.06,11.06,0,0,1,53.26,50.64Z"/><path class="cls-1" d="M67.1,36.08,69,44.94l.26,0-1.84-8.81,1.09,0-1.37-3.9-3.68-.05L61.94,36h1l-.52,4.64-8.12-5L52.64,28.9a1.78,1.78,0,0,1,.48-1.66l.06,0-2-9.74L50,20l-1-2.4-1.29,2-1.16-2.49L45,19.54,43.85,17.1l-1.49,2.34-1.61-2.38L39.49,19.6l-1.26-2.3L35.61,27l.08.05a1.16,1.16,0,0,1,.61,1.36l-1.87,6.69-8,5.65-.89-5.3,1.1,0-1.37-3.89-3.68-.06-1.47,3.86h1L19,45.31l.26.06,2.12-9.93,3.89.05L26.2,41l-2.53,1.79-.12,9.06h.26l.13-8.93,10.38-7.35L28.58,56l.26.07,7.71-27.57a1.38,1.38,0,0,0-.44-1.45,88.84,88.84,0,0,1,16.65.17A2.09,2.09,0,0,0,52.38,29l6.71,27.33.26-.07L54.38,36l10.19,6.34.69,8.58.26,0-.69-8.65v-.07l-2.16-1.35L63.2,36ZM21.79,31.83l3.3.05,1.19,3.36-5.77-.08ZM38.31,18l1.2,2.18,1.28-2.59,1.58,2.33,1.44-2.28L45,20.1l1.46-2.41,1.15,2.48,1.28-2,1.06,2.47,1.18-2.35L52.87,27c-1.59-.16-3.1-.27-4.54-.35l-1.56-4.32-3.58-.05L41.7,26.53c-3.07,0-5.14.24-5.76.3ZM42,26.52l1.39-4,3.22,0L48,26.63C45.77,26.52,43.72,26.5,42,26.52Zm21.62,5.9,3.3,0,1.18,3.36-5.76-.08Z"/></g></g></svg>